<mxfile host="app.diagrams.net" modified="2024-02-07T03:09:50.960Z" agent="Mozilla/5.0 (Windows NT 10.0; Win64; x64) AppleWebKit/537.36 (KHTML, like Gecko) Chrome/121.0.0.0 Safari/537.36 Edg/121.0.0.0" etag="tTp2x3BKWIwfWnNmXkQB" version="23.1.1" type="github">
  <diagram name="Page-1" id="qNVgoKyeTIey1c599sMV">
    <mxGraphModel dx="1402" dy="586" grid="1" gridSize="10" guides="1" tooltips="1" connect="1" arrows="1" fold="1" page="1" pageScale="1" pageWidth="850" pageHeight="1100" math="0" shadow="0">
      <root>
        <mxCell id="0" />
        <mxCell id="1" parent="0" />
        <mxCell id="OSc-gWwQD2eEF07ZnKaG-1" value="" style="shape=image;verticalLabelPosition=bottom;labelBackgroundColor=default;verticalAlign=top;aspect=fixed;imageAspect=0;image=data:image/png,iVBORw0KGgoAAAANSUhEUgAAAgAAAAIACAYAAAD0eNT6AAAAAXNSR0IArs4c6QAAIABJREFUeAHtnQn8fdX0/h9D0TxoUqYGGiQlQynNs6nIVCgiohRKQuYpUwMyRSlCJUpISqWBJlODpEkoDSoSDfz+//PUOXW+93uHM6y1z97nPPv1+rzu/dx77j5rv/faw9l77bUAJREQgT4TWADAlgD2A3AEgF8CuArArdlnd+d/fM/PfpFfw2u3ADB/n8GobCIgAiIgAiLQNwJLA9gLwFkA7gHw/xr+cYLwcwB7Aliqb5BUHhEQAREQARHoC4HnADgRwL0NB/xpEwVOJE4AsH5fYKkcIiACIiACIpA6gY3yJ/VpA7jld2cA4GRDSQREQAREQAREoAMCywA4EsD/OTzxV5kwHAOA2w1KIiACIiACIiACgQhsn+3N39bRwF+eHNCAcLtAZdZtREAEREAERGCwBB4B4HMRDPzlSQBXIA4CMO9ga0UFFwEREAEREAFHAjzSd3Jkg395InAagIUdy6+sRUAEREAERGBwBJYEcGHEg38xETg/W6FYYnC1owKLgAiIgAiIgAOBhRIZ/ItJwAUAFnTgoCxFQAREQAREYDAEuOd/agJP/sXgX7xyq2KewdSSCioCIiACIiACxgRiM/grBvgqr58xZqHsREAEREAERGAQBF6c4JN/eWLA0wE6IjgIVVUhRUAEREAErAjQyU8M5/zLA3qT939XHAErlVA+IiACIiACQyDwjcSf/suThcOHUGEqowiIgAiIgAi0JbBhh+59ywO31XtuBSiIUFut0O9FQAREQAR6T4AheK0G31jyoZMgJREQAREQAREQgQkE1u3h4F9MQrQKMKHS9bEIiIAIiIAInNDjCcD3VL0iIAIiIAIiIAJzE1gKwD09ngCwbHITPHe96xMREAEREIGBE9jLefC/G8C3AbwcwJMAMLgQ//j+FQC+A4DXFEv2Hq+7D7yOVXwREAEREAERmIuAp/HfcQBWmOuOc3+wIoDvOk4Cfjb3LfWJCIiACIiACAyXwPxOT9//A7B3A6zvAMDfWq8C/AfAfA3k0U9EQAREQAREoJcEtnAYbDl4Nxn8C8CcBFhPAJjfZsUN9CoCIiACIiACQyewn8Ngy2X/tomW+9aTgH3bCqXfi4AIiIAIiEBfCBxhPNDSmI/7+W3T8g5bE19tK5R+LwIiIAIiIAJ9IXCu8QSA1v5W6Rhj2c62Ekz5iIAIiIAIiEDqBK4xHmR51M8q7Wgs25VWgikfERABERABEUidwC3Gg+xKhkBWNpbtJkPZlJUIiIAIiIAIJE3A2gHPgoY0mJelISCPAiqJgAiIgAiIgAg4uABeyJDqwsYTgLsMZVNWIiACIiACIpA0gduNB1m697VKqxjLdquVYMpHBERABERABFIncJ3xILuDIZBXGst2raFsykoEREAEREAEkiZwjvEgy6N7VokOhSxtAM6yEkz5iIAIiIAIiEDqBI42HmRpVGhxEoBbCdYhir+RemVJfhEQgf4QmCcPifp8ALsA2DPr9N4F4OMA3glgDwCvBbBN7l3tYf0pukoSCQEPV8B049smPQTAicYTE64kMMaAkghYEmCfTM+X7KPZV7PPZt/NPpx9+Vvyvv15eV//cMubK6+0CCwH4FUAvgbg9w2ecPh0dTGAL2a/fxmApdIqvqSNkIBXMKA2fvfZcVou/Rd5bRIhf4mUFoGl876XfTD74rrHaLmqdRkAuqWmjcuyaRVf0tYl8GgAbwfwW4dO7f8A/BLAmwE8qq5gul4EAPConfVSOwdchvTlk1CdxCd/Dv4e4YDZUVv6KKhTLl2bNoElAOwO4DwA7HOLCaXV668BvC17sFsmbUySvkzgOQBOAvBfB4UZp3js4I4FsHZZCL0XgQoETnfU0e8DeGIFGbjn77HsX7SVUyvIoEtEoEyAfSn71LpP+YXO1X3lWPEDAOuXhdD7tAhsDuDnjh1qFaX6EYBnp4VN0nZI4K3O+soVBlr0c8lzVQB0FsQ/vueWGL/zWIUotxXa1yiJQBUC6wH4sXObKOvmuPdnANi0irC6Jg4C3N8/smOlGVUkHsninpWSCEwjQB25NzLdHdXlNv+zbGoH0zRA35EAl+DZh3ss8zfVX64IPEHVEy8BWoFyr/POSDvQ2wC8MV58kiwSAidEqr9NO87y774bCWOJEScB2p68CYC1V8yyDrZ5/69sfNkHwEPjxDdcqWiF/5NEOk7uxS423KpSyWcQoM1Km04q5t9qO2xG5Q/4axrBcqU0Zv0tZPsZABqVK0VAYOPsyfpviShOoUBXZ4ZWT4uAnUSIk8DZielzodfTXs+ME7WkioDA0wFck5jOXw9ggwjYDVqE7QAwtOi0jifW77ictNWga0+Fn0Rgncj2P9u2Ie7l6ul/Um0P+3Ma2P0z0T6cpxJeOuzq66703CvyOKfctrOr83sq0Cu6Q6g7R0zgW4l2iuP0X65/I1a0DkVj3xfqaN84vbT4jEcGd+uQ4SBvTeAWlRdDHnw64hEsJREoE6DTkxt7oOc3y1NmuVr1Pifw8h48wJXHD7oaVgpAgMv+oZz6lCvY8z3PXm8ZgJ1ukRaB7ROfAHBy+6K0kEvaAATo9jr1J//R8YBjEturkiMBGvz1TXEKReI+2JqO7JR1mgQOTHgS8Ok0kUtqRwI0fr4jYZ0u+utxr3fJMNBPc+hAhJaX48D35bM/5j7h/Sgq59QIMFLlKQnqPT24KeJaatrmK+8imRfKKxPU5TrjC8coBYcz1iM6XkixE6yjOMW13zFmp+zSJ0B3vRcm1HEyWMsC6WNXCYwJpHLOv+iLm75yrJKzIEPloYe/ppWR4u92NmSnrPpBYPE8Clrs+nyuHF31Q+GMS7HLwPrwvY35DTa7xwHgmfnYOz5L+W4BQCtwJREoE+BKQMwrYVz2V6jfco3pPQmwL2OfZtlHxp4Xx6zHqvrbE+izb/RpSvzF9uiUQw8JcF/9oAg7Uxr8MR6HkgiMEjgsQn2d1vdafafYF6OaUPN/hvS1qozU8qGTo6fW5KXLh0OAx2F5xr5rvaavghcOB7tKWpMArf5jiuoXur3w5JpSQwI/D9zBcdmG8Z/59P2RzM3wvgA+CuArAOifPbTbYRkENlScgfyMYVOP6qiDZaf+dVk8D0TTmheTT8EhB1320eyr2Wez72Yfzr6cfTr79tDbyQwcpNSAQKioaHTCw46MPql55Gpamg/Ac/OoVSHitnMVYJVpAuk7EQCwHoDTA3a0p2XRN9cVeRGYQWC1QN7+2E/yYWkbAI+cIdO82QRhs7zP57n9EJMTtk+lmgROcq4cPsHwWMoTa8pVXL5iNjh/21lGKudXixvqVQRmEOCk+TgAnNRad2zMk+1FndmMStDXDxA43EEPR/X6hwCe8sAd6715DADaJ3hvUZxYTyxdzVjLnu5+rwPAztIicf/TM5oVvWbpTLVFTQ0nD24NjHaUbf5nB0lHXEoiUJUAT4N4LrfflD/xV5Vn2nXcp/e0p+FqsdrPtBoY+Y5nKNt0WNN+ez6AJUfu1/bf1bOAPlc5yvzKtgLq94MjMK0N1P2OEwAlEahDYCfH/vAyhyN2ywO42FHmverAG/q1v3WqCA7+PEvtkej+8RonuU/2EFh59ppA3UF+2vWaAPRaVVwKd6pTX/h7Rx8pCztOAi5yodzDTJdzUhwu+1s/+Y/iX8Mp0AWNVeYfvZn+F4EpBKYN6HW/0wRgCmh9NRcBLv972KHQmdDj57qb7QdcCfDYDmAb4tac0gwCr3KYABC+1Z7/DPHvCwlZt4Otcj19IiiJQFUCVXSq6jWaAFSlrutIYCuHPpy6um0gvLQJ4MmCqu2j6nU7BJI/6dt8zQE8rZdDJg/vhTzTqiQCVQlU7ZSqXKcJQFXquo4EDnDow0Ofp/fwXkjfBEozCHCPp0qnVPUaLkU1Peo3Q9SJX9MokJ1mVRmrXEcnFkoiUJVAFZ2qeo0mAFWp6zoSsHbgRv17RmC0PCJo7Sfg0sBlSO52dMRjvXdEJz9dJAZGqdrBVrnub10UQvdMlkAVnap6jSYAyapBJ4LziF5V3apyHc/6d5GONC7H3QAYy0NpAoGVjYFTuejhr4vE/Z4qyl3nmkW7KIjumSSBOno161pNAJJUgU6EZtjqWfpU9/uXdVISwCMWTejV6I7QNbvt842Vh44o6Pqxi/QoB0OSZ3ZREN0zSQJ1O9lp12sCkKQKdCL0OsZ9OB3CLdZJSe4fO+40Lg9dyStNIPBaY9hd75vTYcW0jrXud1KeCYqjj+ciUFe3pl2vCcBcePXBBALWD3GXTLhPqI/PNO7Ddw4leIr32dMYNiNAdZmONy7PK7osjO6dFIFpA3rd7zQBSKrqOxXWeuuTsS26TF8y7sP36LIwsd/7PcawP9hxga2V5/Udl0e3T4dA3UF+2vWaAKRT711L+gbjPvzQjgv0YePyvKvj8kR9e2vY7+64tAcaK4/8SXdcoQndftqAXvc7TQASqviORWUfVVe/pl3/mY7LwwF7mnx1v+MYpzSBAAfsukCnXf+hCfcJ9fGXjcuzWyjBdZ/kCUxrF3W/0wQgeXUIVoA3G/d5Xwgm+fgbfcS4PPuNv40+JQHuj9TtnKZd37XnJWuPgDIgUTupSmBau6j7nSYAVanrOmtD7u91jNTaI+DuHZcn6tu/xngCcHbHpb3CuDzP67g8un06BOoO8rOu52SWbro/CeAdAHbJfbMzxsZqAOSjIh3d8JT0BcZ93uWewlbI+xzj8jBMstIEAtsYw/5P5pd6vgn38v6YkZ/45DSrY63z/dO9hVb+vSFQR6+srr0dwO8A/ADAZwHsA4BOXHg2vKuz3L2p0EQKQl8lVvrEfNiHMtR6F4ljh7U7YAZKUppAYEVj5aECdXV23nopjA1BnegExdHHcxGw7ISt8roeAOPEHwLgjQA2zCYKdJil1B8CrE8rfSny6eqp2dqnAcvDcMNKEwg8zGHG9Z0J9/L+mE6ICgW2eL3aW2Dl3ysCFjoXKg/GuTgpe9p7L4CtNSlIXg+vNe77TuuIyLHG5eCK9EM7Kksyt73YGPq9AFYIXHrrZTB2xN8NXAbdLm0CoQZvr/tcCeBbAN6abyEoiEo6+kjDPWu9WDtw8VcCQDfEluX4beAyJHk7eu+zhM682JGESg8BwNjV1mXo2qdBKH66jw0Ba/3rOr9/ZiFhGRVu78zGgIMBVwuV4iSwv0P/99PART3GoQxdOzUKjLDZ7Wg05NHZ0Do1RKK3Pg/5twghvO7RGwIeOhhTnrcB4MkEug/n05pSPARo6OahK7SrCpG2dZJ/+xDCp34PWnxaW89TGfkE8RRnOM92sGGg7OzsHuEsu7LvFwGPDjjmPK/KjGQPBrAZgHn6VZXJlYZ9FU+EWOvL3dnq6gbONFZ1kv1/AJZwlr032Z/noDxURnYSXkdKaN1JYyZrpWd+R/amZlWQUAQ89DCVPG/J28xLACwUCrjuMweBbzj1hTcAePwcd7L7h2MDxwgPPac/AaWKBOgtyaMSmOefATytohxVL1sXABXTS2Y5AKpaE7quIOCli6nlS8tr+iV4NYD5Czh6dSfgtYxO/bvZYSWAq8M8aeWl3zz2qlSRAM+ScrnHqzLuAMCng7aJBn/c87d2FlEuN5fStPzftqaG93tueZX1SO/v30qjN8PNZUTo3iDoRMdTB9nn0hsl++C2iWMBxwSvNkJZF28r5NB+b30Gc1zl8qw+j+w1Sfzd6Y5KU8hL16tKIlCXwB8C6Gahoym+crvuIABPrgtW11cmwEh+3rpxPoCNKks054V86ufqkLeM357ztvqvCgEe9fGuGOZPg8MfA9ihggMSuvelJaq1k59J5eTMcdkqsHSNCIwQ+Gag9jNJd1P6nPuz9DanLYIRJWr573LOq6NlHePDGIOlLT1DZhri7Zj5ljjZydi8LBPfc3xZa4ZM+noCgR8F7sRoqXlZ7nTnSwA+BYCvPG5kHdhnVFHG/U+fCEoi0ITASwO3nXH6m9pnPG3zOQBrNAGu34wlYB0SfZZOccBlX/39vO8u+vDjs7gUvwfAPn5WHpbfc4VBqSEBGtd5HAm0rGCvvFjuJzXkpp+JwLwA6E3PSz/7nu8vsocBTqLkgbBdW1p5wDrIPrzpFnM76j369VEDViB6MFQH1CNlDlyU7QbcdqwmKNfk7ogXDlx3fbgdvTXyCLNVXaSWDw1OlVoS4J4Ol+ZSq3wreTUJaKlAA//5JwbcdqzaIPOhRTsdDXmdQe+bmnLw//qAde9WR58zfdOVmeXhGUrLxpxaXmxIiiI1U010wRgC1JsDBt5+LNs7g4sdDWC1Maz10f0Ehv7kT317nZTBlgCj4Vk25NTy0kqArT4NLTc6ZvnjwNuQZZunMRmPd+kY4ZwtSYM/0FUI+jlromf/LeroptGyY/DMS5OAnil14OLQRz6dntBNKy2iPZ2feLaDmPLmRIAdviYC90doHPKeP/WSk2zZizh1bHTh6+ldKqaOZZIs2g5wUq4BZ7tAtr+9WP63Qma4xT9ab9MXB0/i0BU1z8m/LQu085HMNwWPdnFF7kwAl2Qhev+llYX7jpdxIjDUrQE9+QP/APDUAfcjQYq+SUDnEpMG4a4/10pAEFXTTWoQWDI/8sSjc+/IHLJ8IXewRY+E3Dfvus2Euj/LSt8hj67BLvVLNfjf7w5+09QrMhX5X96BQ4dQHUjV+2glIBVtlZyPzFcTXpMtj9I97KkAbur5pIDbK+8DwNWVPicN/vc7F+LEVykgAZ5xZqSvqgNmH6/TSkBAhdOtzAnQtfaW+UB5Sk+3967PA4ZxoOxb0uB//5O/RWC5vulGkPJsnDnp4L5LHwf3qmXSJCCIqukmAQhwQFkTAMOB86jddT1q27SV4PZlX5IG//vHHo5BSh0SYIfRhZ/+qgN0iOu0HdChAurWrgToeGfXzLjqez1ZIeDEJnX7AA7+7HNC9G2x3uPyzBCW0QSVIiCwUP7EEKuyhJBLKwERKKJEcCXAgYcnE96fnUy4MOE4ITw1sW+ibr41+APHAVjEVdOVeSMCDAd584BnploJaKQ2+lGiBB6TGRO+KQ/PHTrKm8Wk/tf5MctU8A998L8x80XzqlQqa6hy8jwzfXb/d6ATAa0EDFXzh13uZQG8BcA5ia0MMGIcjw3G7jxmyIM/J5eH5n4yht3KEio9HTIc0+FxwbtyhykM6RvaO5ZWAhJSVIlqTuCxudOi8xN6CPgTgC3MSdhk2MXgzz7sifnkiH2pxYpL3TwKd8/a67fRo05yWRUAwzKGcnvKUwmfygZ/PpEUiQ1Ik4CChl5FIBwBdt6HZKsDjM5WdwAIfT1XA74S2f5yV4N/OfgZ+1L2qaFOfNHb7GG5N8xwmqo7uRKgQw7u3/wEwN3GncHtAI4C8EIAdHoyLmkSMI6KPhOBMATYLtn+f27c9j0mCTz+uFUYLFPvEsPgXxaQdcg+ln2t9WSAqww/znz57whg/vJN9b5/BFjBXG77WG5AROOOOg35mtwX+ntyRyaPqIhIk4CKoHSZCDgSWCV/ovx7zXZfp49oey1XA/gUuqAjh2lZxzb4j8rKPpdOpNgHHw/g2pp1+TcApwP4KIDNspDZ843eQP8PiwCNB5+VBz6hq2GePaZPc77uAuD5AJ6RLScu3hKLJgEtAernImBEgKuCe0QeZZSxFBgELWSKffCfxIJ98zPzvvp1ed/99vz1ZQCem3/PyLJKItAZAe5vHVFzxtr2iUKnAzqrbt04cgJsj5zg8wRB23bm8ft7Mn70fVDeF/dC2lXfxEmHkggMhkBXDe3hgyGsgopAfQJ0NESD3RiPEf/U2YtgV32SBv/6eqpf9IBAVw1Ok4AeKI+K4ErgyQCOjdCnwA3ZSsXmDiVPddnfAYWyFIFwBDQJCMdadxKBugRWz/2J0CjPY3m/SZ6U5eOGWwJd9UF68q+rjbq+lwS6aoBaCeilOqlQDgRoXPaDiCYBnDicBKCtQVtXfY8GfwclVZbpEuiqIWoSkK7OSPLwBJ4TmbEgo9Kt1hCDlv0bgtPPRMCDgCYBHlT7myfPQtPVNM8x75AfaaO1+GczL2Y89UGjMUbNuzI/6kZ3s/SIx7//lJ5m78w/47n4q/K/i/PfnpEvgX8uw8i8dwfAI1UbAeDyeOw+7L1qn6cG6A+kyRK+9W/o5fQlNQvaVV+jJ/+aFaXLh0Wgq4aplYA49YxOq+h/4rXZnu8Hcwv1swD8JSIDtZsyx1rn5h7aOEl4ZR7lbok4kZpJxbpheTmBsh7U6+ZHuwA6NmP/MSvpyX8WIX0vAh0S0CSgQ/gd3np5ANtmAaz2zy3Qr+gwmFXdAWjS9ZyonJgx5UBJN64M1NO3tFw+MYvBUJBe8aa5su2qb9GTf9+0XuVxJdBVQ9VKgGu1PpD5PADWyXyavzV3K83jXZMG0b59zhWDk/MVjU165IZ1PQC/jaAefwlg6Qc07cE3evJ/kIXeiUD0BDQJiL6KKgvIiRUNyD4M4MzMzfS/IxgoYplY0B6BtgbvA7BBtpRdNbZGZfgBL2Q97ztiY9EF56tHjAO76kv05B9Q+XSr/hHoquFqJaC9Lj0637s/BsBtGvArr3BwckQDRq6OPKF9NXSSw4rZhO+0juucYW23zu0CunA9rsG/E9XTTftGQJOAdGqUHuQ+kO13/zoiI70unkAt7/mrjOV7s6hva6SjBvdJ+hAAuzmErq3DlnEEuLpS5zdtr/16RWPExKpT4opAdwS62L87uLviJnXnlfMB6pLAHW3bjjrF3/NI46dy+4lUlIRGgrE5EfKqew3+qWil5EyOQBeTgFcnRymMwOzU98us9n+jQT/o02V54Pp9vt++bJgqb30XtqV/9Vhf6HtCy/6t1UQZiMBkAqG3A24GsNBkcQb1DdnT6Q739O/tcUdeHmRTeP+/3GaAA+y0I3AxKOsqWejhi3qoOxr8Y9AuyTAIAqFXAt4+CKqTC0lDNDrh4Zn2FAbEIctIb4aHZJ4QuS0Ta6KBLf0ixBhyuInuaPCPVdMkV28JhFwJOLu3FKcXbON875ZPmE06Rv2mO26sM+67bzq9ijv9lvr158R1S4N/pyqkmw+ZQKiVAD6pzDsQ0JxY0c/7LxLvmDX5eHDyQec8u0bqcGhxAD9KVNdk8DeQTlHFjJdAqJWAPrpwLdcq7RzeBoABczR49pMBvS3SzXJsNi08LkjnQSmtNOnJv9x76L0IdEggxEoAo871MS2YGfS9O4+Gp4G/nwP/aL3+FcCLI1TmbRLRQw3+ESqPRBo2Ae+VAA6UfUp0N8tl4SH54B8dCIf8PwP38Kk7trQSgN9FvAqlwT82jZE8IpAT8FoJYNzzviQO/G/RwK9tjnyQZZjl2NIjARwe4SRAg39smiJ5RGCEgMck4HMj90jxX+6zvkJ7/Br4RwZWOuah3/4Y054R2QVo8I9RQySTCIwhYLkdwBMA9G+fclo7Ow521kjHP+Tlb5V9TluHr0Ss3NtHEDlSg3/ECiLRRGAcAauVgK+OyzyRzxiNj0upKVlXa3Cec3AOweMuAItErNPrAripowmsBv+IFUOiicA0Am1XAi4DsPC0G0T63Ty5gdcdHXWaIQat4h5cobk2j/jGc9kMlMMYBa8HsB2ADfIVnBWyydDjASyW/81Xqju6z+XnPJPO6/jHVZ/1sqiGL8w8IL4uPylxYLZcfhSAUwBcAYCR5go5Un99XolHjG/p2ZCBkEJyPl1R/WJUBckkAtUJcBLAqH51Ow5aInPASC09Ixv46Pilbnljv/6WPL78QfmAvEk+UHOy01WiS9vl8/gIb8j88H8CwAmJerejf4DY06MA/DygbnOCx9gXSiIgAokT2KniMiKXy7nsn9qxPz7Ffron/tW53Pv9fBVjSwCpRLsrN5GlAGyVrRK8C8BxAK4OOHA1mcx9six8xO+5chPSc+BtWfCr1SLmIdFEQAQqEqAHtL0BnDNmoOQy8ucTNfjbHMBVkQ8w0walywEcli3l7xx5EJuKajbxMk5kdgRAo7vQy9nT+PO7j02UOr4v6Jb72ID6zmPAS8eHQRKJgAg0JcDz8HTvu2qi+/wsN1cpOJjQqcusDj6m73n07EQAu+VL6E3rMPXfUf8YwvdIAIzi12UdxegPYFr90sj3awGZXQBggWkC6TsREAERCEXgmbkhWpeDRp170/0sbTG4p8rJl9KcBGhPwMh9nwVwXcCBrajDVeYUJ4n/6NuiiX1PUea6r9zKoU2RkgiIgAh0QoBPPtxXTsEC/W/5tgot8dVxVlcXDmxPB/ARAFx+rjtQ1b3+wuqiRXclWfHkR90yN73+o9ERkEAiIAKDIMBTCWcG7OyadJL/zpe0+TTLyYpSOwKcOG2cM73Tqe5f1E7EKH79ISc2o22A220xBlKKohIkhAiIgA8BnkenRfJohxTL/zw2uUd+nt6HgHKlT4pdsm2Usw31gLYYfUkHGHKZ1q7oXyN176B9qXOVQwR6TYBP0R+O1NCPHuToaXCdXtdAnIVbPT858Z8Wg95FCRvAjqsVbgcc2oLHtEF/9Ls/RO49cRwffSYCIpAQAXqmOzlQhzbawU37nxbr3J9eJiGWfRWV/gbeB4D2FtPqbPS7kzKDQzrW6VviJIBHSkfL6/E/V09k29I3DVJ5RCACAmtF6DyGZ9d313GoCLRjbhF4soJH+fhUP22w45Mr/S1woOxr4qrZt2dwmMaoznfv6StElUsERKAbAjtEEAGt3Aly4H+VjPq6UYYGd6XnOjq8+lLmxe6Y/Lw8B6r1B/TESmdBITwG0nOo3AU3UFL9RAREYG4CjIEei2MfnkenPDq3P3c96ZP4CdBt8C8CrARcn9kecCtGSQREQAQaEWBQm5CezcpP+KPvbwDwZgB8ilISgZQJLBHIYdaPe76tkrIOSHYRiJoAYxSEWK4cHehH/6dzIXpWSzEEctQVLOE6JbBixUBgo+2h7v97dVpK3VwERCA5AnQ7cReTAAAgAElEQVTuc0mAZcpZndl38/C6yQGUwCJQgcBzAPDY6qx20OZ75k/jXSUREAERmElg5Qhix1+ce5qbKawuEIHECbw0gH3NH7Ow3FzRUxIBERCBiQRoqc0AOW2eONr8lsv9H5eB38T60Re2BHjskAGH6CKarofX68iPBONotGk3VX7LCJ1KIiACIjCWwNqZkd3NATqiSZ3VOdnxME5AlETAm8CjM495B05Y6eJpl/PzsNA0gg2Vvh6g7W0dqjC6jwiIQDoEuBf5jwAd0LjB/5+5db+8l6WjLylL+pbMH8G/Kur6FXkExBDl5fHAX1WUa1w7qvLZXwAsGqIwuocIiEAaBLj8WbVDrNLJ1LmG56FXSAOTpEycAJf76YSojn7yWkaS3DZQ2Z+QebW8pYGMdcqkrYBAlanbiEDsBNYFwChidToQi2v/m+/1h1xijb0uJJ8vAcYmaKq7DG70DF/xHsj9eQDoya+prFV+t9UDd9MbERCBQRJYE8Ctzh3NuM7oWgDcclASgVAEaN/S1pPl77MImA8PJPAHnNultgICVaRuIwIxElgDAKPnjRugPT87Tg59YlSH3sv0UyNd3zUQKdrDeDvh4naIkgiIwMAIPBEA/YR7DvSjeXPJ//1ySzowTYujuMsZPP0X+nxuwCIx7Daf1It7W79yRYRbgEoiIAIDIUAPf3927FTGdVI8WqjIZANRsAiL+QZDfefe/JIBy7gBAE6ex7Uri89+F3BbIyA23UoERGCUwCIduPe9IAsm9LhRQfS/CAQk8CnjAXSdgLLzVp8wln904sBjkUoiIAI9JkBr+1OcO5LRjuX4rPOav8dMVbQ0CFg72Hlh4GKz7Z7n2Hbp/2PZwGXS7URABAIS+KJjBzI68PN/Ru+TY5+AFaxbTSTwWWPd57J86LSS83Hdb4QukO4nAiIQhsD+xh3guAG/+Iz7lbuHKZbuIgKVCOxrrP9dOa56o3E5ijZbvG5SiaYuEgERSIbADoYW0EVHMemV3gTpxERJBGIiQB8Ak3S27ufXdFywHxiWZbTsjMD5sI7Lp9uLgAgYEXgqgDsdO4xyB0JvgnqCMKo4ZWNKgC6ArzRqBweYSlY/M+7V32ZUlnL7Ld7vUl8k/UIERCA2AosBuMqxoyg6DL7Sm2Boy+jYeEueuAnsaNAWGLRqqQiK+SaDspTbb/k9Q4EvEEEZJYIIiEBDAiG8iBWdxo0AuNKgJAIxE2Cb+EnLgTOUF8BZHFmWs1qWpWi/417fO0sAfS8CIhAvgQ87dg7lDoNeylaOF4MkE4E5CHBV7NKGbeOQOXLq/h+2OwYoKrdHq/fcznt090WUBCIgAnUJPD+Q0d9NAFatK5yuF4GOCSyabVedXGPg5KmWd3Qs86Tbe57u4bFhJREQgYQI0M2vp4FQ8YTBIEIMJqQkAikSoFHgKwBcMWUiQJe/PwTwlIgLSAdBdOVbtEvL13s1wY+45iWaCIwQ4L7g6U6dQbljodewUHHRR4qof0XAnMBaAPYGcBCAwwF8PIuVQUv4Zczv5JPh+o4rft/xEVm5ioAIWBN4T4DBn0cKN7QWXPmJgAi0IvBtp7bPVZCYV0BaQdOPRaAvBOjo5B6nTqB4+udeaGgf6H2pH5VDBDwJPCZbxaATrqKtWr5+y1Nw5S0CItCOAM/s/sGp8Zc7kj3aialfi4AIOBL4gFMfwFWA1R3lVtYiIAItCBzm1PDLg/+nW8inn4qACPgTmA/An5z6gqP9xdcdREAE6hLY2NEAqJgA0Pe4/IPXrRldLwLhCVh4OyzaffmV23+rhC+O7igCIjCJAJf+vV39XgCATxZKIiAC8RPg8cZznVYBFC44/vqXhAMiwGX58izd+j3P+i8/IJ4qqgj0gQCPBVr3BcyPfgEe1wdAKoMIpE6A5/C5LOfR0JknDX+2TB2S5BeBgRI41alv+ORAearYIhANgYcD+JVTAy8mFLG6Po2mEiSICERMgA8I/+fQR9AJ2CIRl1uiiUDvCezr0LCLgZ+vxwHgXqKSCIhAugToxrjcrq3e75UuEkkuAmkTYIQuxiS3asyj+VwNYOG0EUl6ERABAE9zWgW4FgBXIZVEQAQCEzjCcfDnvr/c/AauUN1OBBwJfM+pv3iJo8zKWgREYAwBzug5SI8+tVv9//4x99RHIiAC6RKgH38PWwAeNVQSAREIRIB78mc5Dv7nA2BoUSUREIF+ETjRqd9Ys1+YVBoRiJcAY5dbPemP5kObghXjLbokEwERaEGA23qjbd7i/0NayKSfioAIVCTwCEcf3+wI3lxRDl3WjgDrcdk8sAo75e0AvA7Arnkd8HQH/96Xx6RnXHq+Lz5nPfFaxqrnbzfI86JhKPNWEoFJBH7pMAm4HcD8k26oz0VABGwIMAqfxYx9XB5nA3iojZiDzoXbJ08EsFk+QH8w86L4dQBnArjGMVRruU7vAMBTHLwn783ocK/Nto42BbCStng618/VALw+c619AAB68aTNzfMBLBpAspc59SGvDiC7biECgyXAGfb1To33LgCrDpZs84LzKZ4D/Z4AjgRwIYB/O9VReYBv+/6ePHYEgztx8KEl95M1AWyuCBV/+eJsoL9oin7cDeCr+SStYpa1L2MwryunyNBUt2iXpCQCIuBEYG+HRls09v2dZO5TtosD2CYbJPlET/eq9IRW8OvLK8v007yMWwNYrE8V2GFZ+GRfxxnPv/IVGy+ROWH10FmubCiJgAgYE1gQwE1OjfZiAPMay9uH7LifvhOAwwH83ukIlUcnbJknj41dlgV++Vq2YvAqAMv0oWIDl2FJAL9p2Hb3cZKV/cmtDWWapl/czlASAREwJvBuh8ZaNOSNjWVNNTt6NGP0NBrccSnf48x0wTzlV4adPjjf+pDB4XRtp03NyS3aLnWQ2wYe6TMt5JqkvzcA4BaDkgiIgBEBuuP1mK2zEX/XSMZUs+ESN5/yeT76TocOcVJH2ZfPuVR9Qr46EMKALTU9o6Ff27r+q5NL7lWcJrk0NFUSAREwIvA2g05kXCdEw78VjGRMKRsO+rRYpgEcja7GsdFn9bkwJDVPknB/eamUFMJJVktju/c6ycj6stb1w5xkVbYiMDgCXJZmwA3rRsr8PjYgmlyq5vGnHwOgBbwHT+X5IFcy/lFmP/DSAfsloG8GK534mxNHrn5ZyVjkc5uTrAPqrlRUEbifgJfXP+7VLTQAyDzayD19LwPKotPT6+SBhAPCl7KtgrUGoG/lItJxk6Ve7FzO3Oj9fE7biy80kk/ZiMCgCZxn3IkUHVKfPf4tAOCNAC5wYlcw1Gv9AY5xJt4AgHXU90S/EJY6wtM6jANinT5vLCfL/G1rIZWfCAyNwEYODZON8089XaLjETU6tbnFiZtlZz70vOhvgCcJHtfjRn28gx5u4sDrqQ5y0qCWRw2VREAEGhKgkZrHQEGf831KXFrm05b29n30xUMHizxZZ8cAWLdPCpmX5SsO7Zd9gkea5p2wqKu6r17HFz3KrzxFICoCTwDwP4cOhC5A+xLqdwsAP3dgVLej0/U2Ew/GLaBb5b4kOvGx1g32CU9yAPQOB1mPcJBTWYrAIAh8yKFBsjOiN7fUE531/MyJj3WHrfzqD4Ln5IFxUtdTusX1qH9unVgnbsVYO77iVpycAlnXlPLrPQEe/fuLQ+fBp/+UGyQH/tMcuHh00sqz/eDHM+qMkJdy8lha58Dq4YHRI0zweilXnmQXgS4IvMBpkEvV8v/pAM5wYqKBuv1A7c2Qk76nddEQDe7JEMwefLY3kG00i7c6yMojuEoiIAI1CHgY//09waNXDLXL8+P0MOfRiSrPdLhyeZrGgqmdGuCTOn1uWOvaSTX6k6qXPsbB7ujSqjfXdSIgAgAboceAR5uCVNL8APYF8E+HjtO6I1Z+9oPbNKY8XsanypSOmPFo6rQyNfnuXgCcIFunsxxkXclaSOUnAn0lsJ9DA6TP/1TCuNLz4Z8dGDTpZPUb+4HLiil9WdDNcAppaQBsg1ZlL/Kh5b512sNBzt2thVR+ItBXAk3jhhedwrhXxrOPPfHYI/30j5O/r59xheOaPPTwT7LjXUfnWx6H5E+5fNKlO1muhvCP7/kZ/3gNt0f4G/6W4YsZM2JoqyZcCk9hW+BrDrp9mUOjfqyDnHSIpCQCIjCDwMoOjY+D5zoz7tvl1zyVwGiHDCvbt4GegzEtq+mkiFswdMC0eX6O28OKu6hH5s2z4rwX78l7Uwa6lb6jh5xZpr0iP+GyhhP3ZxWVbvjKiYVlW6T90UMN5VNWItBLAtbBQ9iIfxcxKXrw45OrZWfTVV5XAfhWFl6YWzg8ura8k9/2ttVJX/IMAc2TJpSVMl/dkzpgnAG6tY01/cKB8ycdCvsZBzmHFgjKoVqUZd8JXOLQ8GLcf6OfAxpG0ZCpqwG7zX3/k3sgPAAAo55xjzf1RBuRbQF8AgANwVjGNoy6+i11an8A1LHY0q4OTOnbwzpx5ci6/rjKpyQCIjCBwOoOje7fWcCVxSbcr6uPudfvYWls3WGN5scnfO65v2QgYZQZJpZueWlvwFUaay9xo3yt/+fWS2zW5wsD4CkG67Ky77BM3EKy3iryimFgWW7lJQKdEfigQ8fAfd+Y0i4OHYt1Z1rkdzeAH2UnEijzcjFB7EgWHk+lPQENNVMJukQbjJ074jXptt9waOfvmXSzFp9b+yJhXcS4KtMCkX4qAnYEfu3QMWxqJ16rnJYA4BEatRisrV55VIsd304Rrpy0qgDjH3NViQMrLfA5UbLi75XPsdmpicWNGTTNjqsq1uXkCo11epODnB4Gi9blVn4iEJzAox2WWG+KZMb9TADXOXQmlp0oreO5P7tI8JpP/4aLZp7u3pCfMLCsE+u8eERy7Qhw0xqePgysy0ejU8u0ooOMPKmhJAIiMELgNQ6N7fMj9+ji31cDoB2CdWdnkd9t+Z7+ml2A6ek9V81tBm6MtM65wrNnBOw/5sCHDnysk7VDrm9aC6j8RKAPBOjj3GJQK+exQYdgHpk5Z/FwfFIuX9P3XC7dEcC8HfLp+61pRPbK7DikRyS8pvVe/t1XsokKdbSrxKXwsjwW7092KIx1v/RHBxmVpQgkTYCOcOgow6ITKPK4vkPHG/QkxiX1QpYYXv+X7+1z/1UpLAEuu9MY1SO+RRvd+lXuqyEsjfvvRl8M1k/XPF1gPanlakkbxqO/5UmSR3UBXPcUgVgJPMe4kbHRHdxRYZ8N4GaH8ox2JFX/p4HaoQC4n6nULQHWwRciMxqkncy6HWHhFl1VPa563XrGZeHkreq9q163pbGMyk4EkibwYYdG1sWT7osj2u/nMTU+dWrgj69p0G8/J6gewXGqDkLl6ygHA1CFTh7OdqyPA/LYnrU/AGsZQ9eb7icCpgR+bjwBoE99Tz/z4wr/TodTDOVOuup7Dvzc36WzIaW4CbCODovEpwC3iPYJjGseALcat/3THMpwqrGMJzjIqCxFIEkC3LOztpI/MSAJPiFwib3qAO153U8BPDlg2XUrGwIMWmRtbNZUz74KgANzqGTtFIjum62NGz9g3L7/Ggqu7iMCsRNglL6mndWk3+0WqNDzZ1EGaXk8SY5Qn/82cy0ci8OjQOh7eRsuiTNwVSi9mXSfH2bxEKjbIZLH8d+NjAXf2qFOYnNPboxM2YlANQIMkDGpI2r6ubVDkHEloU9z662LuuWlAdfrIw8BO46dPptMgCdi6FSoa0PSMwLFe+A2SF29n3U9n9gt07IOMlobK1qWV3mJQDAC3zVuXJcHkJyzd4+wprM6tvL3XDJeMkBZdYtuCFDHGHipywBE9BcR4siadShmxmqwTpxsl9tf2/ecuCtFQoDLXVvkscEPzzt3Rj7j2XRayDK8Jo1V/pJFBzsbwNH5tfwNnwSVmhO4wbhh0QDOMy2VhYz9jbHMdToT6iX1TmkYBDYEwEltHR2xvPZSAHwC9ky0O7CUmV4YrdPPjGU80FpAw/zoDrwYDznWcczj2McxkGMhx0SOjeyL+CDEMZNG0NzCCrV11Lq47Mjpl5nLuG2CedDq+nQAbwXAeOJK1Qlwqd6y4TMv7il6JUaD66ozphOZA7I/hqhVGhYBdqqs+64cCf0+O61A3fdK9Jho3Q9YR688yFjGn3jBbJgvY7FwO5ZbPxzkm9YHx9Izc3fTUa5Q0ukMj2G0KeQkOMyTeXfpgrZh/Xfys+1aKNqkOniiU0kWAnCJg7yTylH+nEFcpFNOFZtQtjSYpSvZsm6Ees+Jr1egKI899ucb1+trjbnTC2IMiQaTjP7pMbnkw/H3AawfQ0G5lMaZSagGw2UTeoVTmkzgvcb1wX06uhj1SJzYhdKd8n2O0DaTR3Ummye3HL/ekS5+z5HaNcZlep+xrM8wlo+2HV4TqipF56B8rnGZyv3W6HuuLPDhO3jisjzPmnZhTMN7fis7J87tBqW5CRxnrIBeHRT3w0YV2vv/2/OAPXNT69cn9AOxAgBaRfOpbad8O+1DeVS9T+fGcDSIK/742cez0w+8hltv/A1/yzy4rWTtDz5G4vQ6aR0/o4pOex03tTYG5pOnZeI2jPVT8tMtBayYF8fDrnxOcDykd9KlK8ra+jI2EoY8raLYntfwSM/2rUvTvwz+YFw3+zohsjYAmqVrF2SRBOkuti+JR9u4NcMtn3fnRrR8+qBDFI+JOb3aMe9zsvsy/Oq7MsPNbbMHgZU6DBDlUZc8QkdL/Vn6ZPm9h6c9sqF7XEs5r3MAbr39wvEpZHopgFuMOTepMxoTsj26JbqB/VwEBR2FQ8vPkF623AAbZMwZNTvqUUZt/t/KQK7RLBZ3sheZVE7OkFM39OPkhZ3NZ/JB2NrT4yR2VT6nLNye4yrCSwAwcmPKiX0dV0aqlN3iGj4Fs01Yp20cymAt5ynGMtLoLkTiitghxrK31SVO/GlYab5at0Ak3tkmAeIMWkcHAY944LRktU4eXsDG6QZdmO5iLXyg/Gjty2AyPM7FJ69x5Yv5sz/lPvlflrBvhdcBoA6F4OwRzY7LwtayP9NY/79sLCMHQO+0YBbtkScOrNla5Wc6HrIj4vKplXBe+VBG69mptyJZ52/tApTbLB7JWs5xOsUztgw7mlJizIH9s733i5yW8cdxCvEZV6W4rM4l6dVSqhAA3FOmLnlz8jpqy20bS9l3MK6//Yzl87JZKoq9BIBfGctsWT9FXudnK/aUtVXiMa3Q+2FFAZq8nhfI1WYrqI4//qCxYnrtTe5qLOeorvw6i95nfWbZq9o46H+0Q18Io+xC/H8ZAIarXtULqnG+PK/v7ajKy4vdScZtjRNUy8RVLkud4+DslbjKnMLDcMGTsnK1olHiPph1yMZCMM9X7ikxmtwQ01HGjYn7zR7pBcZylvWJS3OxbwfxqBInQdw3L8s+xPd8wNjT4mnFQ1FLebIj5dlurzp6bulelm9pl2EpM4/QWibrbUue4vBItDMLbbhsUW8MrNbIRi5Gg7+qQGJ2CemhnEWeZxk3du6BeiQ6KfGwVKfL4pgnf9yS4HnzUPvKVdtLDNeRCQeXp3konFGePHnh0S+yLXitWL3JuE/gpNUyedgpNH7qnVIwj3oP1e5qj4c8XhdKOK/70Bp5aMl6r3ITR4Bcpresex5LizE9ND9P/1Pj8lqyiy0vrgq8OuLJnPXxOs9laxoXWtYv44xYJjoZu9NYxidZCpgfN7dkGDovTjArHxGkU4MYzvm3hUQPdkOKI8AtG+sjgJ4hgNnBt61j/p7KzfgTsSUuu7GMVxiV04JVannQkx23B6jbsSU+WVu1tx0dC7eig/7RNswyMS6CpW5aeovlamUM5/zb8uHWSCXneXTy0fZmsfye57+HkugUxpI7zyY32juqCJzLqW2taSljbMf8eAaXA/+VxvVhWbep5cW4DZwIPLKiboW6jFtkbScBPPHBVSKvxC0x+o+3rHPrkxwMHmcpn2XMAnqdtZSty7xm2m8wiIHH3mxXhWZZLGeDXo3UIt/NjBWVna53ejyApjHBOfhzoI0lcSmT204M59mVvvf9vvSHwDr3ik3RRJde3mKA5VMZn9C9k7W3PcaAsUzHG7cZqyOVDBbWt/FwahAh65lYDB0SLTeHkKyP0zDQRIhEwzhG8aqjK9yi8vBQ2LS8tGSWRX+9OqxT36PX8oxzJ0FQJigIHVvV3TalzofyU2Ftf2Ltgp3Gu6N13Ob/fSbUU92PBzUeskG1gR7zb2PqLOoqYdXr9zCuP1qrh0r0NsggRlVm2zyaam3k07Sc3B/8jjH3mNtRTLJRV46OyM5n5YrHxCg3dT2kfRIDt1nW3W5NG8yE3zEIlaV8zK9t4mq4pUwx5cUAX3OlE3tc4GPnKm3/PviAcf19sgNEfCI6OHOBy4BGxb4ll/ppDEbf7GyUMSQuQXMpuovIcTF1JDHIwgiPtA+gTUkMiSdn+ERLV8iFfcC9uTEodTvUU3+ZBd3jWtYVQ45bpr2N5TvMQDjrbQlL/m3zmiuqI60Diw63beYx/p4N0MOnvYGemWXxeeNG9E4zyZplxEF2sYg69qIUT8m2H35pzDrGNpOaTIyEuHpRSZG80gCPOuxp5FelqIwWaVmfn61y0xrXWLsGb+sOmL4J+jwesmx08f9A4jEqSwUZzetuAN/O3J3SYIZLZQwuxD++p29pxlLuC/A7APBYC5fdaBTmaUn/QAXmfEe5t/nfywlQWeaU3nNCwifNu5zbSps6G/pvWTcMX931gBubXlu73mZfbplotT8k3eV4yK1D2m2Njof8jN/xGk8m3DJ+IFl7kCsLzv2uFR640+Q3jCvOmVv5t314Twvcyk4YJuOZ+Y2122bGmVe6nwBD8Z7eQ93sQ/saV4ZzAlnXp9I+2JbHcWr6mXWMEO5JN5Ultd99t6Ju8nSI5zYE+7P7Ep/EPWYb3P/i3k7dxBl8sXeWWuVOk/cA5yeTtmfqR2W3PupTVw9iuZ7hbP8xoA5qVA9S/Z+2AUP0Bjqu3fDol2U9MsiMZVrLWD7LslrlxTGtyemEdziNh1wtm4+VaO0qsgDWZPAvlIr7z0U+fXrlJMArWXvTim0/1YvbpHy5f2ttndwnXU6lLDQepXOmISe2Zcv6+p0xTEbEtJQvxrw4kDdN/K1Hmeg7BvShbp05l/3bJO630lLRWq4Y8vPaDrjamJenG+A2uhHitwzMwmXkGPSlqQw0fKUzpzNz+5BD8xC8XGHjMS7uC5f/+Bm/Y5heXst9SJ6DZh7Mq6kcMfyOW5w8sjnUZO0llKd0LBO3f2PQEy8ZuJTfNnlsB9xn6M3z3pYF53aChXcr2g14bE1YlrVJXhyoPZ5IrAMBeUUna9sQvH+/LoC/GbeJJnpS9TccnBmr/mv5lhtX9Ohh0fJYHPNinnS+xJU93ov35BHNqnJ2fR2D2NBh0xATbVgs+Vt7CbWWz7KsbfOicTsnOG0TH8isDZDZjvELY+WwtBDlSkLbCojx9x57kzcbs5rjmEhb7U3k9y9NIFQvw+bS4HO/zDCRdhq04ekqMewqfTNwFZGGYdYdlHXb/TeAF3cFq8P7WofctY4IaC2ftd60yY8n3KwS82ojy+hvucp53xLf6Bdt/qfRlFV6pXGB25TL8rc8ImidrA3VFrYWMPL8uBxWxROhpR5UzYurOzx7vUVhuBMpy/lzmyLGTv9rpG2Xxlht9mMjRT9VrEWN6+LWqXer/yV9JVRtC6ldx2N9VolH5i3Lz7gl5t7MLJY7CmCrGBfYEl6bvC4vCmj4yifDNjKN/ja2yGuGqObIimfGaSg2Wv6u/78RwIEA1oks+M0c8Kb8Q67cTqEXuqYBnzzrgHYOQ/EXQGtvS5Z3Tqn3Jl9x4mgpX0x5WbotZ16WZeOqsfk+u+WSJJ9CLQscS150FmSdrI9ODqFzpKV/TOGvWYd0yU1D0VAOpKz1cFx+tHnhWXSWzVpP27TpozKjR+pA3xPbchtOo7+l7Ydloo3J6D368j+3yawS87Lkwi078wmAZYEXMS6wJby2eVkaabEerTvWvk8AOCjRKUfberT4PbdvuArBFa++Jxoz8XhlLHEUfpDJ0/fVLusJAPsa68SHIou2FFseCxmCcpkAWDdEHjmxSqv2VCmopPc5YbAC5WC81udOkYP/yRHoFpf56RzEctJsqFKuWbFj5F58DNsD1AWPkzmuAGtkzrZsOTDSmNI68WihpYyx5EVXv1aJeVmW674tAB7psMzU0uiBEdcsZYspL65uWCYZAVanyWhhXeoCB/63AeDe59ATtwzfHsFEgBH8+pqsV1JvcwAV01acZd+woyEra6P4+4wAdQywm8GAERgtk44BVqPJUyqWDbxOXnxy+iiAoZ2wqFIzHKS4NWBtzFqnfravImiC17CvqcNh1rWcwFonHsGddd8Uv4/+GKC1IyArxwe0eOxLhMBxivsY4xYkR0CzgdLg64qOOhr6x6DDE6XpBOhw6NiO6oinc/poFMi+Zlwf1PSz66ZXYaNvafTKwGlNZYr1dxzDLLbFPRzj3ecIiA5FrOG1dX1IV8C0GLaWK6b8LLwllluaXAGXaYx/z3P0oXWA9bL1eHH06RQC2wC4poP62mSKTKl+xb7GUu+vdAJhHbXQssxt8mKU2zbJyzU+XX+7BQNqEvmogOQRn6BNBXr8lgaOlknBgGbT5Ll6j7oclyctpT+tff7ZlTLlCtpIfMbhhMu4+io++9QUeVL96inGen+pI4hPGMta1GvXr/cNtg25eQXH25TysJF5+NxnB1jX4xZnOhz8rY+0dV354+6/ZkNlmPQzhQOeRObBz0NZ/v8pC8Kz8YO31buWBBgvngZL49qR9Wc/bClrjD+nu2ZLThc6FpJHFhk11VLeGPLimHZf8J0a7Dge8jce4yFtbR44icaoX16QuPxRxTsg9/z7vuxfZkwvaZbpp8Z1+CJL4SLJ6yJjRuX6LN4fnbjeScIAACAASURBVHnwsz7hEQm+TsWgO1vaURScvV49B7euANK40ZIXJ9Leic6w+mgTwCi3VWwCeI1nRNyflStwT2MFGVU2GkLQGpK+jOnshOee+cdlcB5tYNCfPhv8jfLg/88rV4DB+28Z1yFDxfYtMTTuuLqw+IxR+dos8/WNtVd5qJceK5aFDszRMXoVInC+bzDWe49YJuOQ0DCQgdN4P25x9sVZEMc6GrryiGB5POR7fsbvvMfD3cvAeUzE+4ZFA+vilZ1z23jg1rOxncoVYPCewWIs2dI4tG/J66wxT2BYr+j0jb1leZ7tGGzoSEtBI8nr3cZ9A+M79DkxOmGfx0OWbYnRCjzBWEksB6O2eXFG1TZZO4+hIxjL9H7j+uujMdQuxoyol78F8FjLilRelQhwQs/l+rZ9w+jvrSfmlQrjfBENKUfL2eb//Z3ljSH7WNyEt6mnSb8deyphfWMlmXTzLj5n2doma8MUOoSxTHsY1x/9Q/QtcaXL0tEM/cgP0Y1vLHpBd8I02rPqU+ioaclYCmcoB1c1rBgxnzcbyhZrVhsaM7Pk3zYvrqCNTZ57pG2Fbvr708aWtP6HPNHQVIZxv2PwF8tEF8zj7tP0szMshYsoLx7Na8qk/LuvArAO6BQRpmREYR3QoUm5bpq+/2Qypa4nqLWRN732DSH1cTw8dVrFPQfA/xk1pqaN0PJ3LIvV3uxrjblwickybWYsH4+y9TEtbnCk7BAAPKKjFAcB1gXrpE3fQec2PGnQx0TPfW3YjP62j86SxtU7V477Nh5OfPovAFgvF40qT8j/jygKZfD6QuNGZP2EzWMjlmwZ87tPMenLKrA6gNsb8vpIOaPE39PtbZ9WMVg3TdoAdYE60cfEKIfW58jplnYoyctwuImetv0NVy1nJlpA3tqwIbUV0PL3DFhhGXDH2kbC2puWGvpM1Z7jAk6YLquh53cB4CpQComDOkOH8qjpW7N2cCiAUwBcnK9+sH2zPEV743t+Rmc7vIbXfj7/7XMB0EcHHbSkkHjUmHv5RdlmvfKs+WopFKyhjHowaAgu/9kymc2DdaC1WTrp8f0tdexb6JM59aUPPrFbJp7RtKwYnmm1TtYBgfq+1EcDvvdmA920UMpsB/RhYRnX27reOeCvDYD+PCjr3411lXpPfaWzKZ424XYTJ5yxJrZVnvyZ1ofxqZ/W7H034rSOf9HXrcFpumy9+ms5jlTJi+2AjpVqpYMdOpEqwlpc43GEjSFcLWQr5zHXWcxaNTT3xWcZy/i6uW/Ry0/oEpPBZxiOlltg3wFA/Wf5Hx1pibk9w6dzOkn5p3G9l3V00ntOmo7KucW6VcSjgqxD2gewTlm3rGPW9QNuUCOtXyuxrJ0AWW9dWpXTO5+Ux8NGxq2c4f+kg45lUodT9fMfO+5r3mbM4xnGWssOuSqnKtf13eGHMf4g2dGI5wsAuKRXpQ5DXMMlUm4zrBOEgG5Sh8DnjPXk8Do379G1tJexdrceom3+qI0tFwMFnWOsQJ6F/qXzkh6dvljKTzeXlumDxvL10S2qJe9QedHK/fnZ0vvZxvVrqctFXnTO82rHSXgo5n25j/VRtvf1BUyDciyQSBss2uL5FuMhl6mZUZFprK/nZcu2izWo1Do/sQ5WVDda4ixZdzauJz5lKnVHgEvrNDy0DvUcog3TyJX6yCcnpe4IWBt0c3I35MRjxBcY97Me7ZEPw4+yqigaysS8HcBlf87OvJO1v30u5VombilYK9NylgIqr8oEGE6YFvnW9Rk6v8sBbFW51LrQkgBdVFvX91qWAiaaFz1QxrwdQO+Y5uMhn0YOnGFZa61ss/KjdSM9u4V6ytjHuEFx4mKZaNjE8/uzuNX5fmtLAZXXTAKPyY3V6tRRCtfSbfITZpZeF1gSoJGopW4wqNojLQVMOC+Oh7SRsuTbNi+OhzT4cx0PeSTC45hR3cLfBCB0zHq6wKwr57Tr/+DQAPjENe2edb97p4OMynJuAjxnT9Z1zrDXrcuur78zKx+3vVLxKTB3LaX1CSN6WtY5/WYozUmAdlwx+Angdi3thIIkOtihl71p52wtFa+cF+/Jo09dBO14lnGD8phR8xx4mVfb94wSqeRLgO3pZON6a1vvnr+ncWnb8Ny+NdKP3LnqYlmP3+oHFvNSsP0e3eF4yFgYXYyHoHc8NmZLJZuWFy1aOQh3lWhkOE2+Jt/RgYtlonOTJnJM+g1nt/J7b1lDc+ZFpzo3GNfZpLqM6XOu4PE8vpIPAbZZ66Oi7/IRtTe5Mu6MtS+WaW2WgX1m+vYPQZdCMMbwPQ4dGfNk4JwoCgrgr8ZlpKW0ZfLwWhWzFzxLdiHz4jL4xzp6apjWqYT8jqt59N+vCaa95tG9sXVd0rW00mwCfDDmeMgVXus6uBvA8YZB7maXpsYVPDLIuPRcFWgTd52F5OyGrk0t/fnXKMrES62tPz8z8U7NvqChlbXSpeIDvxmx8L+ik60+BRlpq2/c0ovVm2B47bC54+sd+oHH2Yg2mFwYV2cvAAxJzzGtaTvhWMo83mx5tM+7FmiRzuXNfQEwChEdCjHYCJeUGXyET/Y8o3ptvmxCL3Y0EKL/+Zj9c1u7hJwan7lhJV3fQtnGKWmlKFINZR3az3g8h965xnEe8mdsB3S3rWRD4OvGOsY4I0rNCXBM2zQfDznh5VYB4ypwDORYyDGRYyPHSDr8Yp/L8ZC/GYrb6uZ0A/7yjcYNi3uh1uk4Yxk9TitYlzmF/OhE5FzjuunTpIEOVmJb8UtBr8bJyIHEUjcYS0FJBAZPYAPjhsVGypCTlokhYC0bP/Na0VLAAebFJ/9fO9SLdT13nd+vPJyYDEzfGL7Zuh65taskAoMnQPeK1o1rS2Oqz3SQ8U3GMg4tOx6hstabvuZH+wil5gRoO2WtG/IA2Lw+9MueEbA+tmUdYIMGVXS6YtkJ8EyxUjMCtAq2rIsh5LVhM9T6VXZUmh5GLXXkDm/vcqo1EUiJgLWDjVMcCs+43ZadwL/kBrRxLcnor74u0p+5Un0CNBiznvx79E/1S6ZfiEAkBN5rPLh6zLA/ZCwjJxObR8I/JTEYOIQWvpaTMau8eDSpzfEkKznG5UNmMZ8GilUHGXhpHM82n7G/UxIBEcgJeDSyNY3prufQERxiLOMQsuOx1jadb9vf8pjtkQDelvsKp1MnerR8WAk+3/OzVfJreC1/w2NKbe/f5vcblWTU22oEPu9QZ116X61Wal0lAgEJ8DiXdRwEOnmwTOzUrYM20fahPHBYytvXvHZ06JCnDarUS54jpj493gAqHUvtnudprfPTysHvdjCQf0hZsG3+zVjfeDZdwZuGpEUqayUCVxo3NAaTsE48uzurk637vYyz6tUSXT3XZdzk+tszG42PGw36k0rIycABAP4RqEzWbrInlasvn9PxWhPdmfYbOq1REgERGCHAAXtaw6n7HZdbrZPH4HOotZA9z89ju6isW7flHsNCetFbJA9dzElHWRbr99bHY3uuaviKQ328su/QVD4RaEKAPp6tOzyLJdtyWehgyHrZlp4LH16+id5PJfBohzqg3rFeuU9Pf+NdJfrEoGvs/zm0BeZp7SCrK04h7sujv9bR/1gH8swYovZ0j+QI0DDGegKwqwOFixzk5FKjUnUCdHFrqSvXZcFBnlP99u5X0jsmZbIs43nuUvfrBh4rTef3C5FKIwJ2BPgUbL0XyhCS1un9xh0zO3kGblKqToDLqFaD4/cB0Ag1tsRtgWMMy/mK2AoYuTwenib3j7zMEk8EOiVAZyVWHTvz+ScAhoq1TDzaZSkj82J4yhgHIUtulnnRitpiJebDAB5iKZhxXpTtowb6xhUTWZ5XrxxuxbQJvz6pf2DfoSQCIjCBwN4Gnd1o4/M4+/w7BzkVHGSCUkz4mPYdtJ8Yre8q/3O//+0T8o3xYx4bbGoXwH3sFWIsVMQyeQT/YlAmJREQgSkE1m7YoU/r9HnMyjq9x0FOTiqU6hF4OgDGVZ9W/6Pf0Uvki+rdJoqrKTNlHy3PtP/JhoyU6hG4pCbnaXVQfPfOeiLoahEYHgE63rjVuPF5DKwM5Vs0bMvXdYZX5a1LzFMBtPWocjrjHACrt75jdxmsAeDcCrpHFscDIBulegSeXYFvkza/Uj0xdLUIDJMAjbKaNLBpv3mcA0ou6U27Z5PvjnCQcyhZMmQz3bbSoVR5MnA9gK8D2LpHILbJjyyybIWescwsOxk8o0dlDV0U6krB1OqVNhhKIiACFQi8xaEBvqnCfetesq+DnAzYoqe2ujUx9/U8w83z/I+Y+6veffLIvKwss1I7Ass6BXOibZOSCIhABQIey+sM5WudOFDf6zAJ+Ii1oMpPBESgEgG6frZ66i/yYR/BiYWSCIhARQK/N26ItKBeruK961x2grGc7DRoA6GwrXVqQdeKQHsCDDNNN9DFwG31SlsMJREQgRoEaLlv1QCLfLi1YJ2e5yAn5fWQ1brsyk8E+kTA4+gf23KfbE/6VN8qS8QE1ncYWGkBbp14auHPDrJerTDB1lWl/ERgIgF6Ib3WoR3TnbPCfU/Eri9EYDwBNhrGzS6e3i1eaSVtHRyI0n/QWM6irDuNR6NPRUAEjAns4tSG32csp7ITgcEQYGS2YjC0evXw/vZYAP91kPUaBzfGg1EeFVQEKhLg6QmuuFn1MUU+tDvyeOCoWCxdJgJpE3iJQ6P0isZ1ooOs7Eg8ohmmrRWSXgRsCezm1HZpIKwkAiLQkACtcv/t0Dif0lCeaT/b0EFOTgC4hziEs+zT2Oo7EfAiQB8KHjY8bLsxhZf24qd8RcCVgGU41GJp7mAniX/pNAlgIBiluAkw2M52AFhX/OP75eMWWdIB2MupzXqtNKrSRGBQBNiRFgO31SvP+s7vQPFlDrKyzH8DsLCDvMqyHQEaqr42G+x/O6Xe+d1rZAneDrTTrxcBcOOUumvT33D7UkkERKAlAS5/ezjneGVLucb9nAPCVU4dikdEw3Fl0GfVCPCJ/9c16ppxI7QiUI1tqKs+U6P+6kwGdIQ3VA3qPoMg8DWHhnqmEzmvJcW7ATzJSWZlW4/AWg2PqPJY65r1bqWrnQgwMh/jbtQZ2Kteqy07p0pTtsMksLlTQ13NASdd+P7dSV5GSVTqlsAyuWFm1cFg9Lo/5YF7ui2F7v4DpzbKSd4CwisCImBHgEvr3Acf7Uzb/v8pOxHnyGk/B1mLsm45x530T2gC3zKo26NCC637zUFgM4M6LNrj6Os+c9xJ/4iACJgQOMih0fJJ3WO2zjy9jIsu1bFAE31qkslTAdCb5GinX/d/OojxOIrapExD+w2P/V1uUIfj6vwGJ+PiodWRyisCcxFY1anR7jHXnWw+eJuTvOx43m8jonKpSeAThnX6sZr31uU2BD5sWIejkwAF8LKpI+UiAmMJMJjPaKNr+z8tdhkIxDrxSeMvDvKyvDQIfLK1wMpvJoHfGdbnb2beTRdYE+Cqyz2GdVjue/4KYD5rgZWfCIjAgwR2dmq82z94C9N3tAYudxKW7+l0iLYRSuEI3GFYn/8IJ7bulAXseiiAcw3rb7Qtv1GURUAEfAlwhn2rQyP28tpFHwYeIUaLzsdr+8K3FtPMnXVZcLd6nTdNFElK7XU8l7rAVUTVZZJqIaFTI/A5h46YjXh9JxBe3gEpM59IeZ5ZKQwBrQCE4Wx9F/rP+JdTv8F26LWCaM1B+YlA8gTWcGrI33MkQ6dD7Cg8/i4AwHCmSv4ELjGsQ9oTKPkToH2PV4wOtufT/YugO4iACJQJeOzl8WiWl2EdPcf913DwGJ1IfLAMR+/dCNBvxCj7pv/LtbNbNc2RMU9bNK2jWb9jn7H2HHfTPyIgAu4EXurUqI91lPwwJ5nZSbEj2shRdmV9PwF29hZ+AJgHJ4VKvgQYjtdz4v1FX/GVuwiIwDgCXkF3PDvmpQHQ8nvWU0XT72lsyOhmSr4EOElsWkfF7+hNUMmXwGItXTYXdTXp9XYAS/kWQbmLgAhMIuDlaOfESTc0+Hxvg8FjUofEz2nH8BADOZXFZAKPAUCPb9PqYdp3PC++7OTs9Y0BAR758/L1X9TtWw3kVBYiIAINCSwEgLPwokFavq7TUKZZP6NB0oVOMhflf9csIfR9awLPahiimmGtn9H67spgFoH3ObcxhoH2cB42q1z6XgREoETA0iirGED5+pPSPazf0p+8lzcyyk57gK2thVZ+cxFYGcBlNQYaniBQOOe5MJp/wMihnvv+9wJ4mrnUylAERKA2AS7Heg2mG9aWpvoPLH3KlycuxXsGOVqhuji6siEBHr98M4CrpkwErgSwm45qNiRc72ePB3DLlLoo2keb14/WE0lXi4AIeBI42qnBM+6A1376/AD+6CR30bldpMhknmo3V970M78TgHfnf3y/+lxX6QMvAozAyaX5Qv89Xq+Qv3+v6lO+ItCMAKMEctnbo8G/oplIlX7FY3sWR8qmlfskxQuoVBe6KG0CNPqjAey0ttD2O7bVTdPGJOlFoJ8Evu3U+P8MgE8WXulLTnKXO7uDvIRXviIQCYHPBmhHX4ikrBJDBERghMBqjqsA7x+5l+W/nFxcHqDzUpxyy1pTXjER4HG88oTX4z236xaMqdCSRQREYE4C33HqCP4NgMZFXokWxXc7yV50htwi2darAMpXBDoi8Dxni3+2HxoZ6+hmRxWs24pAVQKeqwA0NPRM73SeALAj40RG7oI9a1F5hySwnnOEv2LyTOddSiIgAgkQOMZpIKUBEDscr0QjptOcZC86Mr4yJKpX2GMvNspXBEYJ0BHTPwO0lzMAsG0qiYAIJECAqwB01FEe9Kze/9b5LPdjAdzqJHuZAe9BZ0RKIpAigTUDtRP6E1guRUCSWQSGTMDTsp5nvD3TFgH2NDkZuAkAJ0tKIpASgSe2jMNQnghPey9vmilphWQVgRIBRujyWh68K8DAyVMH0zonq+/+AmCVEje9FYGYCVBXGUjJSv+n5fOemEFINhEQgekEPIOBnOu8L8g9RzrwmdZBWX13IwAuqSqJQMwEngzg+kBtgtFAte8fszZINhGYQYDn6z07jDfOuH/brxnLnD7krQb6afkwQt26bQXW70XAicDTA/j3L9oHXf0u6lQOZSsCIhCQwOsdB9B/AGAgIs+0RqBjTuz8eDpAbk49a1N5NyGwgeN2XjHoF69sA4rd0KSW9BsRiJDAwwAwBGvRwK1ffxCgzC8LEC+g4HJnFkzlhQHKpFuIQBUC2+W+Kwr99Hyl0d/2VYTSNSIgAukQ4BOEZ8CdNwRA8S7HScxop8o46vsGKJNuIQLTCOzp6Np7VOf5/z7ThNF3IiAC6RLwChfMjoNPzSEs6Q8NOAlguXiU8uHpVrkkT5QAV+0OCazrX0mUlcQWARGoQGAZADR0Gzfzt/jsIgDzVpCjzSUcjH/iWIZxHH4MYKE2Quu3IlCDAA13T+hAxzXRrVFJulQEUiTAJcVxg5zVZwcEgLIwAHojtJK5Sj6/AvCEAGXTLYZNYIXM/uTXgXWb99MEd9h6p9IPhACXFjmYVRn0mlxDI6IQVvR0F/wnx3KMKztdom45ED1RMcMT2BrA3wPr9DVy8xu+onVHEeiSAM+6c6AeN8hZfPbnbP9y8QAFXMnZx8E4FjSk/LgcpASo3eHc4iG5walnmxyny38DsPJwMKukIiACBQHPOAHsbH4UaJDkeWU+mY/r4Dw/4x6tHKUU2qTXpgTo6IrHaD11dVzeNwdw5d2UiX4nAiLgTID76N5L6B9wLkORfaioaKMd6XUANiyE0KsI1CSwMQCulo3qlff/t2cutulVUEkERGDABLhX7+kbgHm/KBBfbmvc0UFnyjIeHOD0QyCMuk0AArS2Z6Ar+prwHuxH8+dx3ecEKKNuIQIikAABnv0d7SQs/2c0whD+AYh6k4Aug0cZnQeAIVqVRGAagScBuMC5zY3qZvE/Xfxy1UFJBERABO4jEGIr4PcBjxmtB4BLnEWnF/KVKxBvCWT7IPVNiwBP3+zV4QSV/j+enRYySSsCIhCCgPdWAAfhb4UoSH6PpwGgkVPIwb98Lx6zXCtgeXWruAnQUPUXHeojjxY+M25Ekk4ERKBLAocF6KDeHbCAqwL4S4AylQf+8vt78uOCjwhYZt0qLgLz5Mf77u5QD28A8JS4sEgaERCB2AjQ/SiX6suDmPV7Gsy9KmDBuSfvfdJhFqPLAGwesMy6VRwE6DDqcuf2NEv36ORnxThwSAoREIHYCfBJ4T/OnRafhmisFyo9pgO3weM6ZvoNkJFgqFrv7j408jvJuQ2N06/Rz+jed7nuMOjOIiACKRJ4W4DOi3uSIT2QLRhJp8xtAR4ZXCRFxZDMUwlQx3i0764A7Wd0sB/9n8GyaNyrJAIiIAK1CNAt6YkBOrGrASxdS7J2F/Ps9ZcDlGu0Mx73/435aQHZB7Sr0xh+/cgswiYDbN0UiW59QeGrY1ALySAC6RJYCgCNh8YNXpaf0TJ6vsCY2FmH9rk+iRm9wFEeTQQCK4HB7Wjgt2vHhqZlvaJ9DVcglERABESgNQEaroUYKBkzYN7W0tbL4GUA6BGt3IF2+Z6rITvrya1eJXZ0NVeSXguABnZd6kz53nTws31HPHRbERCBnhLYP1An970OBr81AFwZqHzlznraew4q+yrIUJStiXv8XK25NjKd+aOO+UWpLxJKBJInQHuA4wJ1eEd14EGPhlLHByrftIF/9Lt/5MaCPMGg1C0B2qlwaZ2Gq6P11PX/PG2giJTd6ofuLgK9JrAQgEsDdX5fBcBJR8j00Oxm7OBDbHfUHTBoUX4EAAY6UgpLgG5zvw6gSyc+k/SFuvqeDtpK2BrQ3URABKIgwCN7fCqd1CFZfn5QRyV+bmaZf2ugMjbhdUm+BL14R3yGcNtH5f76Q014m+jBLQC2GkJlqIwiIALxEHixc+jgcmf44Y6K/VgAP4t4EkBGdNT0zcy3PD3N0SBNqR0BWvNzQGWsihjO8Jfbwej7U+Xcp11l69ciIALNCXws4OD4qY6WOLkFQWOvGJd+RwcE7ksfCeD5mgzUUmpu+6yf21n8LaBOj9Zf1f/pQIrbVJRbSQREQAQ6IcDB8eiAHeaXOuz0ng7gDwHLWnUwmHQd/TZ8Ll8ZCO1boRNlrHlTMuGT/ucBpDDoF/XM+ByKLFmzsnW5CIiADwF2pOcGHBg54ehqqZsBkjgJoZOVokNO4ZU+DuhfYQ8AK/moQRK5MvbCWwD8GMC/E6tD6hy9+s2fBOm5heTpBEbkfFwWFZPeEpVEQAR6QmAJADx/HGowpGviLjuRTSP0GVCHPf0dHA5gl7xTDn3SIoTas0yrAXh9fnLiqoD6Wacuqlx7BYCNQkAzvgeDiXHSct0I+//mDw17A+CpIiUREIHECbCzvW2koVfp3JpewyfaLpe2+ST2CQD3BixzU1azfndztqzM6ITvBLA1gBT9DdBgc5vMVmO/PHYFreNnlTv276lbtLPpUs+bdEsc1HlctcpRWsZM2KnJTfQbERCBuAhsGNhY7rzAAYTG0V4bwK96MNiMDoY0KDwdwCFZHIg3AKAraG4fhHbTXGbOe3MZf4tcps9mT8ZnRH5cc5Rr1f8vBLBmufCJvH88gIsbtAdGxZRRYyKVLDFFYBwBNmAOGlU7OYvruJwdMpTwuHLTJoHLmaF8I1hwa5oHn+q4pPvz3DHOpwG8Kw+E86Ks/jkJXD07jbBC9hT4hMyyfrH8rxzgiO+Lz3kNr+Vv+FvmwQkH82TedL7DezFQUpUnyqbliuV3t2d69NYO7VzG6XfVz+ge+Xct2j+PXnZl31O1jLpOBERgDAEO/lz266IjpcMeDh5dJzqO4ZMM9zi74KB7psudkxse4QwZEtu6vXCy1lYHmYdWAqxrRvmJgCOBLgf/osPhOf1XOpaxTtY8pnWmQWdYlE2v7QeWmBlyGyPF5f5ym+AKjtUKjVYCymT1XgQiJsDB32Lmb9FB86gUl45jSS+NLEysBWPlYTcZYdjnvoTtpbW/pW5oJSCWXkxyiMAEAjE8+Y/rdPgEwTP7MSS6lt0VwF+MO8hx5dZntoOQF0/aM9C7ZNkuIgZdbSPD6FE/C3aaBLSpEf1WBBwJxDr4Fx0PPabR8UgsiRbsnAhcr4mA6ZNiUd8pvPLI274JHuub1YZo0OnFX9sBs+jrexEITCD2wb/ojGiVT6vymBJXJvj0l5L72YKnXpsNdPRJQN/9fXV6w1M4nrqhlYCYejDJMmgCqQz+RYdEu4CPR2hZzCNTXBFIKb5AwVSv1QY87vFzshfLdpRXx8Wz/946oZUAr9pTviJQkQAH/1gM/up2OPQcuHjFcoa8jEwZvS9kPIW67HR9vQHuIgCvHtCZdrrlDnH0VSsBIXsm3UsESgRSe/IfN2hx2Z2ubmNN9GXAOAdWx6nGMdBn9QbzqrxYZ3SnvEGsyuUs1zkBVgFYF1oJcK5IZS8CowT6MPgXHTm3BOisJ2YL7OVyY7FrAnWqBRu91p8c/DXfYlp+tNEM7P99AuqqVgIGplwqbncE+jT4lwc4+itntLKYE9lvlkW1Oybzb3BPwA62zEnv554UcLn7pwBeMqBl/lnthDYtNwbUUa0EzKoRfS8CLQn0dfAvBjXGhKeRVgrhcJfNYti/I7MX4P5yIb9ew7K4II/5sEzLdtXXnzOqX0id1EpAXzVJ5eqcAAf/VA3+6nZCP0gsBC6trjlxOTtwh1uXax+uvzRriTzC96TOW2QaAnB7LWS9axKQhl5IyoQIdDH40x96l8vc9BmwW4THBWepzSoA3guAT6cyHmw/+JDh+RnL/SOIMjmr7mP8votVQ20HxKgJkilJAl014IdlYV83yZ5sbwv8BDH6tEJr5tWSrDlgiXxf+kvyOFjrKZSOemhnQb8M3GpRakegqz5EoYTb1Zt+PXACXTVcDv5FgKhjHQAAGHpJREFUeiKAKzqeBHAlgs6DYj4pUPCa9Eqm62Qc3wfgVAB3dMx0dKLV5f9kQSM+rpw8M8FVn0l1HtPnXfUlmgTEpAWSJRkCbLCh9/wn7d8xJvovIxiwfpcNnusnU4PTBeWE4Mn5Uy7jzg/piOENAGjnQT/8rE/GZVDyJ6BJgD9j3UEEWhPoqqGWn/xHC8Gn76MjmATwSZWDRx/PedOY8AUA3p0FTvoOAAZQCuHRzevp/14Al+VlYVhoelh83Khi6f+gBLrqW7QSELSadbNUCcT05D/KkLJ9NFuqpfMer0Gjar48MvgBAPOPCtmz/+nWde3clS2t348AcCaAP0UyOeAEhbLQaJSycYvjVZkHxadl2zaUXSk+ApoExFcnkkgE0FXDnPbkP65a+CR3ewSTAE4W6PmNxmJkN7TEpfMVswnBxgBeDuDN+T76IQC+mdkcnJyfRuBKwlXZJILBcG7N/ziBKiZbfF98zmt4LX/DkwzMg3nxOBn36HkP3muj/N7zDA16T8rbVV+jlYCeKJCKYUuADTKWPf8qJaNl/uWlQaQYTLp6ZfCeofp9r1JfukYERgloEjBKRP+LQAcEumqIdZ/8R9EwnvpxEU0COPmgMx4G8VESARGYTaCrvkcrAbPrRlcMgEBXDbDt4F9UDd320po7NmM1Hit7eiGkXkVABCYS6KoP0iRgYpXoiyEQYMNLadl/Wp0wSM71ka0G0Fjx+ASCDE3jqu9EIAQBTQJCUNY9RCAn0FWDs3ryH1eRS+ZH9LqyA5h0X04EuCJA40UlERCB8QS66pO0EjC+PvRpTwl01dA8B/+iqrglwMA4d0W2GlBMDn6VH6lTp1PUmF5F4EECXfVNao8P1oHedUBg8dxVK58SecyJR8v2zl9flztoeRYAXtcmsYH1Zdl/Goe1IjslUEwAilced3sLAMZNVxIBEXiQQKp91KMAsI+mMy322eU+nH06+3a6417swaLq3RAJLJC5tt0KwAFZwJufA7ip5tPqtQC+l0coYz5VfdSn2rCa6gg5fyUSx0HFwD/6yvPvn8681a3atJD6nQj0kEDsfRWdTLHvZZRI9sV0RjXatqf9zz6fDrUYY2RLAOyrlHpMgE96O+WBWKzD3DJ07TcAbDvF+1nsDcqz6tnArqvZQKc1Xq/vzsq3B+bzhKG8RSARArH1WWyX2+WOqdjnWvYDHBNOydu/VgUTUdAqYtJhzeHZcv6/jBVmkvJRMflEWQ5jGltDqsLN+pqFE1gNKOqUIZA/m50gWMMagvITgcQIxNB3LQfgQAD/DNSHMzrl17QqmJimjohLX+TfzZaI/hdIaYrBo3ilERzjwDOc7hD2/EfwT/x3iwbLdQXTLl4vzG1BGKhHSQSGSKCrScCTsgepLwO4u6M+nGPHsQDWHGKlp1rmJQAcFvm+s+dAxskGG2zMiasBnBzFEFSoal1Q1l9kMRD2ylYy+ESiJAJDIsA+hcGeqraXPl3Hts+Q3TzmrBQxgV0A3DJQJWWDS2HwL6vPugB+nWB98cmAxqO7K7xtuTr1vucEulgJiGkicTOAnXtex0kWj0+U30pwILFUbpY/xDl/awVhp8LjOrFEF2xSJ4yexxUNHjOqeiLEmqPyE4EQBIa8ElD0DdxaXjQEbN1jNgHu9V858ME/tSf/cbX66Ny6N6VtgaJDKL/S2PREALtly4YrjCuoPhOBxAkMfSWA7f2K7PjhUxOvx+TFp0EZLTbLHfDQ3vdh8C8rImPbX9yjOv0LgG/nToc4WZXHs3Jt632qBLQScP/YwyPOSh0QoGenrqxDY5lk9G3wL9SIWxn05PXXHk0ECp3hhJVxCd6fOyDhyoeSCKRIQJOA+8cgjkVKAQns0OHxvqIj7/q1r4N/WY3oneu9A1jloXHRqflZ59fmYYzljKisCXofKwFtB9x/1PxlsVZQ3+Tikoue/OM/6mepd8sA+CKAe3u4IjBpIvnffJ/xJ3nZ3wmAnQx9nS9lCVd5iUBLAloJAOhJUNsBLRVp1s+fHtCj36SOuevPh/DkP0kP6K+f++ldOXfquu7L978TwCW5P/Pjcy+LH81WS96eH1V6HgAes1w792hGg8Tl80AoDIaiFYZJWqbPmxDQSsD9ngpp56PkQICd1jUDegIsd/bF+yEP/mWVontnHnvURKC9ASxtEn6fx7J4CYB5yqD1XgRqENBKAMBAcW0jxtZAPoxLGWOeEZ+KgXCIrxr859Z1TgSO1kTAtF38MQ9qNTdtfSICswloEgAcNxuTrqhD4E0a/KN371unPq2v5dYAozFaR3kc4kSzKDNDZbMzVxKBugS0HXC/c7O63HT9GAJLA2B0tqJjGtprqh7+xlSl+0c0FuTxur8PWF8s2wdjpSuJQBMCQ18JuFXGuk3UZu7f8MnOslNLKS8t+8+tD1U+WSgP2jN0mxELXd+2CnBdIwJjCAx9EsAw9EotCKyXWMQ4iw63yIMucRkOU6k5AToUomHbuQOeRBb61PSVNgHzNq8C/XLgBNiHNdW91H/HPpzHdpUaEjg5sPLw7DWPVtGIg8FdPpm/0gDx8g4mI5RByYbAGgA+O/DtpKYdKidRSiLQhMCXA/fhHHTZV/NobLkPZ5/Ovj30yaGTmkDTbwCe+W/aYdX5HRXmh7mTFR41nJbogGUnAD8LJNtdAJadJpC+q02A599fDeCsQHVYRxdjvZbbcEoiUJfAcgDYh4XQ69Pydr3kDCF5RI+ue9nnh5gMcHxZa4ZM+noMgWMDKA4H8meMuXeVj+hghe5bvZX7U1WE0TWNCPD0wGeycMTXB6hHbz3xzJ9PVEoiUJcA25anXjLvX2YPZBvUFSy//skAvh9Axu80lG+wP1vC2d3vLYZnnXdxnuX+A8AjB6sJYQpOW4FNARyWRe2j9a53p5Va/v8MUw26S48IcKWNeuOl68ybK3n0EdM2vdg53ghXQeQcqEYt7e6oOPR69vgaslS5lC5Xb3CU+YVVhNA1JgQeAYC8efyS7na9OrDU8jWBq0wGQ4CnR7x0/E+5e2tLmE/JJhRXO8q8m6Wwfc/rPKeKuAwAVxc80hMcJwFHeQisPGcSWDAzHNoewBEAGLHPq0NLId+ZsHSBCJQIfNOpvXDwf2zpPpZvaeN1lZPcPImkVIEAHf/QcMK6U7zRUXGKYnElwMPo5XYAfDJV6o4Atwl4LJXOcS510E9rfbfOrzvyunNqBLhlya1Lax3ksv8qzjBoF+AhOw0OvR4+nZGEzZ4hT60Vh/ltE6gYtAnwkF+hJgNVYMXbrAiAW1U8bjQEz4MVsegyEcBWTn0g9/xDpBc4yc/VRKUZBBj33XoA5ZGPkMnjdMB7QhZA96pFgB7PeNTnbVn43R84Gz9Zt42q+dUCoosHTWB/hz6c1v4WBn9VK4Zhx6u2jarXHVr15kO+7mJj8HTuQwOPkMnDhwGfNJXSIPDw3APYXgC4F0pvelU7iVivS4O8pIyBgEfk1qZH/Zry4Arfvcbt9rdNhRnK77jPar2H3tUZzNONlYd+7ZXSJcBjQNzG4UrOCQD+aqwf3hOHdMlL8tAEaKhnqY908tNFOsa4HP9RhM3p1chZl6XiMK9Qe/+jJXuNQ1keNXoT/Z80AXqepGHh6wEcCOAUAH920BuLNpU0aAkfjAAN3Sz0rZxHqL3/UUjPcyjL8qM30f8PEuBgXa74tu854+rKiY7HaYamXgsfJKx3KRBYJPdQSaMh2hUcnK8a/LpDg8MUuEnG7gk807gP54mwWe59vUpNZ0YcQ9qOQ+Xf00BSaQIB66dm+nvvMv3BWHme32VhdO9oCDDc8cr56gEtltlu9gHwieyo61fzyUK507F4H03hJUjUBOhEy0LfijzouK3LdLZxeRhLRmkCgbcYw/7KhPuE+ph7vYUiW7yyo1cSgSoELPStnEeVe+oaEXitcZ9Hg8IuE92Dl9tB2/c8Oqw0gcC7jWF/aMJ9Qn1sHQpT7iRD1Vz692nbUY3+Pn0iKkEIAm827sO/EELoKff4iHF59ptyr8F/9WFj2JxQdJlo2DXakbb5n8fKlESgCoE2ejbut1XuqWtEgH3UOP1p+hkjCnaZ3mVcHo5xShMI8IhUU0UZ97sPTrhPqI+/ZFweWosriUAVAuPaQ5vPqtxT14jAG4z7vK6d51g/lHJCoTSBwJ7GysMBuMtk7RDjFV0WRvdOikCbwX7cb5MqvITtjMAOxn34dzsryf03tt7G3aPj8kR9e2sDkjM6Li2jD47rTJt+9tyOy6Pbp0OgqY5N+l06JZekXRLgSaVJOtTk80u6LAyAM43Ls3PH5Yn69tbK8y8A83ZUYjrEYASoJko/6Tc8Y6skAlUITNKhpp9XuaeuEYF1jPs89qH0otlFYgTWO43Lo4e4KTX5JGPY7Ow2m3I/z692dCjLop4CK+9eEWg60E/6Xa/gqDBuBOjdcpIONf385W7STs94C4eyrDT9lsP+dh4A9xhD/3pHSE82LscNHZVDt02TQNPOdtLv0qQgqbsgcKNx3xc6mmvB7CjjctwNgIHClKYQoOenSZ1Qk88ZXOgxU+7n8RWjD9KFZRN5J/2ma3sGD07K04/AJD1q+rmfpMq5bwR+btz3cRvgyYEhPRYAB+ym7WXc7y4NXIYkb0dXpuPgtfmM3pxCJsaEbyPvuN9+NGQBdK/kCYzToTafJQ9EBQhG4OMO/d/3g0l//42+5lCGrj3TBkbY7HavdADPGeTGzcSp/auXOsjPjrsrW4baAPSDKAi0GezH/TaKQkmIJAgw7PU4HWr72YsDlX5ThxVcll3HuCtU4LJOynMLAIYb9kxPBcCTB20VffT33MZgZColEahKYFSH2v5f9b66TgTmd1g+p/7eAWANZ7xPAHCTQx/OLeFlnGXvTfa/cagAKtDFABZ2osTwv9c6yf1jJ5mVbX8JtB3wR3/fX1IqmQeBU5z6wmsALOUhcD42cIwY1X2L/y90krmX2e7tVAmsSFbw8sbUVgdwtaPM9K6lJAJ1CFh0WuU86txb14rAqx37w6scjAJXyMeGss5bvqeXW6WKBB4N4F5HBboZwCYVZZl12XYA/ukoK/PmkpqSCFQlwNUoy86LeWn5sip9XUcCC+ZL9tZ6WOT3DwAvNELNPX9uERd5W79yLGObVKpBwMOSvlyx3JM5DgCdDzVJT8xmocc6Kk0ha+gTDE1Y6DdxENgQAH2nW/vSoC4yT+bNeyiJQBUCHpb0Rb9YvHJ7tKldwOMAHO5k8FfIx9cTqsDSNXMSeE6AwZWVw46NDh/o9YmuH6clPom/IJ84/DeAfDy9sMo0gfSdCABgW7H2WV7uwEbf817ri7wIzCCwqoM79FFd5P/sJ/kwRlfys4yl2cfzlMI3nAwVx8n37Bmc9PUEAiE7NVYc/T7TiQUjQPHc/b7ZpOBjAOib4FwAtMYfV8Fen317Ahd9LAIkwK2yowM8wYzTb66gsRPV1oB0cRqBEKukZf1kH82+miun7LvZh7MvZ5/Ovv3fgfvw06bB0XfTCfDse7lyh/Ses1p6FFQSgXEEeCbac9+yalujPc2Lxgmoz0QAwJqBVgGq6mvo67Rl1rIZfG+gk4BDW3LTz/tJgL7EPxthmzhYfs77qXAGpeLTd+iBN4b7HWPAbvBZPN7JuU4MCjJJBgbTYFQtJREoE1gk2+/nkuIkven6858CWKgssN6LQB7O18O5Ttf6Pu3+PL0VOgZNb5XtHRF3etOUoOl3PEOrJAJlAo8CQGciTXUq1O/O6zB+e5mX3sdFYOcEdNeyjbw1LvxpS/NQAHy6sKygWPP6ZtpVJekdCNB75UUJ6f8FWglw0IL0s6TRaKz9rqVcPJrIMUvJkAAdKVzfcwX6gzpOQ43pR1bzRr7sP6njpCvYefpRBSqFEQE6B7IO9z5J/7r6/C8AljTipWxGCGzQwVG8UIpEz1ZNHVqMYNK/PSJwSMKT3gN7VA8qig0BBkzz9Jwaqr8ed5//ZCvV69lgUi6TCGzfw2MlPLtq5Zp4Ejd9nh6BlyQ8+BcdJNurkgiUCTA0e2ifKoU+er3SMVyocMVlloN8/4YedIyFIvK8Pzt6JREoE+AyYh8sp+mrQH7QyzWr9ySwLYAQ3lSLftb7dXdVa1gCb+rBSsDd2Z7Yy8Ji090SIcAzxN6dVqj86a1QSQRGCTCQGpfNQ+mhx304iXnjaMH0fxgCnEWmqkB35D6pw5DSXVIisG5H7n09OkjmSbfBih2QkgaGk5XbAbR/8tI9z3y5jaHV23C6MvZONAxM7XTAlbmLzLEF0oeDJ3BOoh3itM6WftiVRGAcgacBuCoxnae1vwz+xtVmB59xv5RnL6d1QLF8R9fG8vLXgZIkcsuNEtHjJu1JqwCJKGEHYtLXBYOfNdGr0L85VUGwOtCQGbek44V9InYbfCuA188og74WgR8k0gk26XQ5+VUSgWkEdgXAvrKJfnn/htu29PD3kGkF0HfdElgWwJERKRD3PynPUt1i0d0TIEBr+Xsj0l3rDpVlU/jgBBSxYxEXz1ZJGVyKJ6SsdbBpfpyYP65jLrp9DQI0Ljm9QwXiwE+leWYNmXXpsAm8zVlfeeqEpwt2yJZbVwFAz2z84/sd8+/ucZZhr2FXsUpfg8CzAJzUsUEsg28ppG+NSovtUhpqnBjwyYqWod+RkV9sapCEPGc4Dr7HA1ixAoWVAHiG4GaHqiQCdQislfepoZwHcaXqBADPriOkro2bAJdX+fThEVSFS1W03OZ5UC5fKYlAXQIM9evx9E3dZDTNuumdTkuwXIVQyOC6taHrSYB9624AznXSTUbb3FPbtf1XNu5Dchn0K9k5zksBsFOqszfEmehvMkU5FABdnTJUq5IItCGwRU0drKqvNIxtmjgJqHqfOtdt2lQg/U4EcgJL5H0v+2D2xXVXB9jnX5KPAa+Qt8ph69XDAXDp87kAXgNgj2xSsB+Aj2eKxU6Qbh53ArAVgOUV6nHYyuJUeupbnUG0yrXfNZD1+w5y7Wsgl7IQgTIBngJbIe+jd877bPbd7MPZttins2/fJu/r2ecriYAIiEAUBOgut8qgXvUaPuFU2fOfVfgnOmxNMC68kgiIgAiIgAiIQG5DUnVwr3IdDVGt0rHGk5OzrARTPiIgAiIgAiKQOoHrjAdZ7mtaJR4RrDLpqHrNtVaCKR8REAEREAERSJ3A7caDLJfurdLKxrLR05uSCIiACIiACIiAwz47HfxYJeZV9em+ynW02FYSAREQAREQARFocBR11kBrOQFgoJZZ96vzPUN4K4mACIiACIiACGTHlm4xHmSfZEiVroLrDPCzrr3JUDZlJQIiIAIiIAJJE7jGeJCloyur9Cpj2a60Ekz5iIAIiIAIiEDqBOjedNaTc53vYz4GeHbqlSX5RUAEREAERMCKwBHGEwDGFaB3y7aJ3tXqusqeNVH5aluh9HsREAEREAER6AsBD1fAjADYJj0kj4o2a0Cv+71cAbepFf1WBERABESgVwQ2N14BKAblJpEAC7AKBlSQ0KsIiIAIiIAIOBGY32GpnZOAJuGA+eTPwZ+/LSYSVq88AjifE0NlKwIiIAIiIAJJEjjTYcAtBm5uB1QJDkS7AY8IgIUcpyVZMxJaBERABERABBwJ7Ok4AeAATGO+YwDwiCDP9i+Q//E9/f3zOxoPFoO1x+ubHfkpaxEQAREQARFIksBSAQZgj0G9ap6cXCyRZM1IaBEQAREQARFwJnCC8xN41cHa47q2pxKc0St7ERABERABEeiOwLo9ngCs1x1W3VkEREAEREAE4ifgaQzo8WRfJc9T48cuCUVABERABESgWwIbAPi/Hq0EsCzP7hap7i4CIiACIiACaRA4skcTALn+TUPnJKUIiIAIiEAEBJYGcGsPJgEMc7xkBDwlggiIgAiIgAgkQ+B5iW8FcOl/22RoS1AREAEREAERiIjAwQmvAnwyIo4SRQREQAREQASSIjBvZkB3SoKTgB8BmCcp0hJWBERABERABCIjwEBB5yY0CTgfwIKRMZQ4IiACIiACIpAkAbrQ5cBa5cx9l9ecB+BRSRKW0CIgAiIgAiIQKQEG7/lxxJOAnwJYKFJ2EksEREAEREAEkiZAm4CDIjsdQGv/T2vPP2m9kvAiIAIiIAKJENguEj8BPOf/gkSYSUwREAEREAER6AWBxQF8qaPVAD7101shQxgriYAIiIAIiIAIdEDgOQDOCGgb8DMAiuzXQUXrliIgAiIgAiIwjsD6AL4P4B6HyQDzZN4a+MeR12ciIAIiIAIiEAEB+t5/S74qcFeLyQB/ezqAPQDwGKKSCIiACIiACIhAIgToRGhzAO8EcDiAXwC4Kjcg5FM9/xh0iJ/xu6/l1/I38yVSRokpAiLQgMD/B63wgPAyp8x/AAAAAElFTkSuQmCC;" vertex="1" parent="1">
          <mxGeometry x="-10" y="60" width="512" height="512" as="geometry" />
        </mxCell>
      </root>
    </mxGraphModel>
  </diagram>
</mxfile>
